<?xml version="1.0" encoding="utf-8"?>
<!-- Generator: Adobe Illustrator 24.3.0, SVG Export Plug-In . SVG Version: 6.00 Build 0)  -->
<svg version="1.1" id="Capa_1" xmlns="http://www.w3.org/2000/svg" xmlns:xlink="http://www.w3.org/1999/xlink" x="0px" y="0px"
	 viewBox="0 0 477.9 477.9" style="enable-background:new 0 0 477.9 477.9;" xml:space="preserve">
<style type="text/css">
	.st0{fill:#16A9F5;}
</style>
<g>
	<g>
		<path class="st0" d="M426.7,51.2h-51.2V17.1c0-9.4-7.6-17.1-17.1-17.1s-17.1,7.6-17.1,17.1v34.1H136.5V17.1
			c0-9.4-7.6-17.1-17.1-17.1s-17.1,7.6-17.1,17.1v34.1H51.2C22.9,51.2,0,74.1,0,102.4v324.3c0,28.3,22.9,51.2,51.2,51.2h375.5
			c28.3,0,51.2-22.9,51.2-51.2V102.4C477.9,74.1,454.9,51.2,426.7,51.2z M443.7,426.7c0,9.4-7.6,17.1-17.1,17.1H51.2
			c-9.4,0-17.1-7.6-17.1-17.1V204.8h409.6V426.7z M443.7,170.7H34.1v-68.3c0-9.4,7.6-17.1,17.1-17.1h51.2v34.1
			c0,9.4,7.6,17.1,17.1,17.1s17.1-7.6,17.1-17.1V85.3h204.8v34.1c0,9.4,7.6,17.1,17.1,17.1s17.1-7.6,17.1-17.1V85.3h51.2
			c9.4,0,17.1,7.6,17.1,17.1L443.7,170.7L443.7,170.7z"/>
	</g>
</g>
<g>
	<g>
		<path class="st0" d="M136.5,238.9h-34.1c-9.4,0-17.1,7.6-17.1,17.1s7.6,17.1,17.1,17.1h34.1c9.4,0,17.1-7.6,17.1-17.1
			C153.6,246.6,146,238.9,136.5,238.9z"/>
	</g>
</g>
<g>
	<g>
		<path class="st0" d="M256,238.9h-34.1c-9.4,0-17.1,7.6-17.1,17.1s7.6,17.1,17.1,17.1H256c9.4,0,17.1-7.6,17.1-17.1
			C273.1,246.6,265.4,238.9,256,238.9z"/>
	</g>
</g>
<g>
	<g>
		<path class="st0" d="M375.5,238.9h-34.1c-9.4,0-17.1,7.6-17.1,17.1s7.6,17.1,17.1,17.1h34.1c9.4,0,17.1-7.6,17.1-17.1
			C392.5,246.6,384.9,238.9,375.5,238.9z"/>
	</g>
</g>
<g>
	<g>
		<path class="st0" d="M136.5,307.2h-34.1c-9.4,0-17.1,7.6-17.1,17.1s7.6,17.1,17.1,17.1h34.1c9.4,0,17.1-7.6,17.1-17.1
			S146,307.2,136.5,307.2z"/>
	</g>
</g>
<g>
	<g>
		<path class="st0" d="M256,307.2h-34.1c-9.4,0-17.1,7.6-17.1,17.1s7.6,17.1,17.1,17.1H256c9.4,0,17.1-7.6,17.1-17.1
			S265.4,307.2,256,307.2z"/>
	</g>
</g>
<g>
	<g>
		<path class="st0" d="M375.5,307.2h-34.1c-9.4,0-17.1,7.6-17.1,17.1s7.6,17.1,17.1,17.1h34.1c9.4,0,17.1-7.6,17.1-17.1
			C392.5,314.8,384.9,307.2,375.5,307.2z"/>
	</g>
</g>
<g>
	<g>
		<path class="st0" d="M136.5,375.5h-34.1c-9.4,0-17.1,7.6-17.1,17.1s7.6,17.1,17.1,17.1h34.1c9.4,0,17.1-7.6,17.1-17.1
			S146,375.5,136.5,375.5z"/>
	</g>
</g>
<g>
	<g>
		<path class="st0" d="M256,375.5h-34.1c-9.4,0-17.1,7.6-17.1,17.1s7.6,17.1,17.1,17.1H256c9.4,0,17.1-7.6,17.1-17.1
			S265.4,375.5,256,375.5z"/>
	</g>
</g>
<g>
	<g>
		<path class="st0" d="M375.5,375.5h-34.1c-9.4,0-17.1,7.6-17.1,17.1s7.6,17.1,17.1,17.1h34.1c9.4,0,17.1-7.6,17.1-17.1
			S384.9,375.5,375.5,375.5z"/>
	</g>
</g>
</svg>
